nColumns=28
nRows=59
DataType=double
version=3
OpenSimVersion=4.1
endheader
time	ground_force_1_vx	ground_force_1_vy	ground_force_1_vz	ground_force_1_px	ground_force_1_py	ground_force_1_pz	ground_force_1_mx	ground_force_1_my	ground_force_1_mz	ground_force_2_vx	ground_force_2_vy	ground_force_2_vz	ground_force_2_px	ground_force_2_py	ground_force_2_pz	ground_force_2_mx	ground_force_2_my	ground_force_2_mz	ground_force_3_vx	ground_force_3_vy	ground_force_3_vz	ground_force_3_px	ground_force_3_py	ground_force_3_pz	ground_force_3_mx	ground_force_3_my	ground_force_3_mz
10.11	3.55094	420.466	-55.2056	-0.255693	0.006	-0.442603	0	-1.09447	0	-14.2064	412.924	59.544	-0.232001	0.006	-0.877618	0	1.68891	0	0	0	0	0	0	0	0	0	0
10.12	2.90963	417.5	-55.7113	-0.252783	0.006	-0.441521	0	-1.08317	0	-14.3089	409.396	59.9979	-0.230104	0.006	-0.878159	0	1.6571	0	0	0	0	0	0	0	0	0	0
10.13	2.28733	414.446	-56.0803	-0.249868	0.006	-0.440446	0	-1.06178	0	-14.2921	405.434	60.2944	-0.228281	0.006	-0.87869	0	1.63657	0	0	0	0	0	0	0	0	0	0
10.14	1.68811	411.442	-56.3127	-0.246968	0.006	-0.439387	0	-1.03172	0	-14.1608	401.132	60.4294	-0.226517	0.006	-0.879209	0	1.62935	0	0	0	0	0	0	0	0	0	0
10.15	1.11245	408.637	-56.4155	-0.244103	0.006	-0.438355	0	-0.994812	0	-13.9275	396.611	60.4004	-0.224797	0.006	-0.879716	0	1.63734	0	0	0	0	0	0	0	0	0	0
10.16	0.55559	406.174	-56.4021	-0.241293	0.006	-0.437358	0	-0.953323	0	-13.6089	392.01	60.208	-0.223101	0.006	-0.880207	0	1.66219	0	0	0	0	0	0	0	0	0	0
10.17	0.00849557	404.181	-56.2919	-0.23855	0.006	-0.436403	0	-0.909726	0	-13.225	387.481	59.8575	-0.221412	0.006	-0.88068	0	1.70524	0	0	0	0	0	0	0	0	0	0
10.18	-0.5383	402.765	-56.1102	-0.235884	0.006	-0.435493	0	-0.866478	0	-12.7966	383.18	59.3585	-0.219715	0.006	-0.881133	0	1.76746	0	0	0	0	0	0	0	0	0	0
10.19	-1.09094	402.009	-55.8874	-0.233302	0.006	-0.43463	0	-0.825886	0	-12.3423	379.26	58.7233	-0.218	0.006	-0.881563	0	1.84956	0	0	0	0	0	0	0	0	0	0
10.2	-1.65174	401.972	-55.6582	-0.23081	0.006	-0.433814	0	-0.789982	0	-11.8793	375.857	57.968	-0.216262	0.006	-0.881966	0	1.9519	0	0	0	0	0	0	0	0	0	0
10.21	-2.22113	402.693	-55.4604	-0.228414	0.006	-0.433044	0	-0.760555	0	-11.4255	373.095	57.1129	-0.214503	0.006	-0.88234	0	2.07447	0	0	0	0	0	0	0	0	0	0
10.22	-2.799	404.204	-55.3344	-0.226126	0.006	-0.432317	0	-0.739322	0	-10.998	371.076	56.1834	-0.21273	0.006	-0.882683	0	2.21695	0	0	0	0	0	0	0	0	0	0
10.23	-3.38578	406.531	-55.3192	-0.223956	0.006	-0.431632	0	-0.727842	0	-10.6128	369.879	55.2103	-0.210958	0.006	-0.882992	0	2.37861	0	0	0	0	0	0	0	0	0	0
10.24	-3.98196	409.693	-55.4486	-0.221919	0.006	-0.430987	0	-0.727559	0	-10.2843	369.556	54.2281	-0.209208	0.006	-0.883266	0	2.55804	0	0	0	0	0	0	0	0	0	0
10.25	-4.58732	413.698	-55.7455	-0.220031	0.006	-0.430384	0	-0.739828	0	-10.0226	370.131	53.2734	-0.207504	0.006	-0.883506	0	2.75293	0	0	0	0	0	0	0	0	0	0
10.26	-5.20097	418.536	-56.22	-0.218303	0.006	-0.429823	0	-0.765798	0	-9.83385	371.603	52.3832	-0.205869	0.006	-0.883715	0	2.96017	0	0	0	0	0	0	0	0	0	0
10.27	-5.82261	424.173	-56.8701	-0.216744	0.006	-0.429307	0	-0.806278	0	-9.72186	373.945	51.5938	-0.204321	0.006	-0.883895	0	3.17589	0	0	0	0	0	0	0	0	0	0
10.28	-6.45392	430.555	-57.6852	-0.215358	0.006	-0.428838	0	-0.8617	0	-9.68997	377.097	50.9383	-0.202872	0.006	-0.884054	0	3.39576	0	0	0	0	0	0	0	0	0	0
10.29	-7.09923	437.601	-58.648	-0.214142	0.006	-0.428419	0	-0.932093	0	-9.74151	380.965	50.4424	-0.201525	0.006	-0.884199	0	3.61516	0	0	0	0	0	0	0	0	0	0
10.3	-7.76448	445.193	-59.7357	-0.213089	0.006	-0.428048	0	-1.01711	0	-9.87838	385.417	50.1214	-0.200278	0.006	-0.884336	0	3.82952	0	0	0	0	0	0	0	0	0	0
10.31	-8.45403	453.173	-60.9189	-0.212185	0.006	-0.427725	0	-1.11616	0	-10.099	390.29	49.9795	-0.199125	0.006	-0.884473	0	4.03461	0	0	0	0	0	0	0	0	0	0
10.32	-9.1673	461.33	-62.1594	-0.211415	0.006	-0.427446	0	-1.22827	0	-10.3986	395.399	50.0119	-0.198055	0.006	-0.884614	0	4.22665	0	0	0	0	0	0	0	0	0	0
10.33	-9.89753	469.424	-63.4122	-0.210761	0.006	-0.427209	0	-1.35216	0	-10.7711	400.552	50.2062	-0.197058	0.006	-0.884763	0	4.40242	0	0	0	0	0	0	0	0	0	0
10.34	-10.6331	477.206	-64.6309	-0.210209	0.006	-0.427012	0	-1.48619	0	-11.2122	405.565	50.5436	-0.196124	0.006	-0.884922	0	4.55947	0	0	0	0	0	0	0	0	0	0
10.35	-11.3583	484.451	-65.7736	-0.209752	0.006	-0.426853	0	-1.62833	0	-11.7194	410.268	51.0002	-0.195246	0.006	-0.885092	0	4.69623	0	0	0	0	0	0	0	0	0	0
10.36	-12.0519	490.976	-66.8072	-0.209387	0.006	-0.42673	0	-1.77626	0	-12.29	414.521	51.5487	-0.194424	0.006	-0.88527	0	4.81194	0	0	0	0	0	0	0	0	0	0
10.37	-12.6875	496.658	-67.7084	-0.209119	0.006	-0.426644	0	-1.92747	0	-12.9194	418.22	52.1611	-0.193663	0.006	-0.885452	0	4.90652	0	0	0	0	0	0	0	0	0	0
10.38	-13.2355	501.426	-68.4637	-0.208959	0.006	-0.426595	0	-2.0795	0	-13.6001	421.295	52.8112	-0.192976	0.006	-0.885631	0	4.98037	0	0	0	0	0	0	0	0	0	0
10.39	-13.6664	505.261	-69.0664	-0.20892	0.006	-0.426585	0	-2.23012	0	-14.3218	423.716	53.4766	-0.192378	0.006	-0.885803	0	5.03428	0	0	0	0	0	0	0	0	0	0
10.4	-13.9547	508.18	-69.5136	-0.209016	0.006	-0.426616	0	-2.37759	0	-15.0705	425.488	54.1403	-0.191891	0.006	-0.88596	0	5.06925	0	0	0	0	0	0	0	0	0	0
10.41	-14.0805	510.232	-69.8047	-0.209256	0.006	-0.426688	0	-2.52064	0	-15.8277	426.654	54.7909	-0.191541	0.006	-0.886098	0	5.08643	0	0	0	0	0	0	0	0	0	0
10.42	-14.0314	511.489	-69.9406	-0.209649	0.006	-0.426805	0	-2.65852	0	-16.5683	427.291	55.4214	-0.191358	0.006	-0.886208	0	5.08731	0	0	0	0	0	0	0	0	0	0
10.43	-13.8023	512.051	-69.9262	-0.210199	0.006	-0.426966	0	-2.79088	0	-17.2618	427.506	56.0262	-0.191375	0.006	-0.886284	0	5.0738	0	0	0	0	0	0	0	0	0	0
10.44	-13.3956	512.032	-69.7717	-0.210905	0.006	-0.427173	0	-2.91755	0	-17.8747	427.423	56.6004	-0.191626	0.006	-0.886319	0	5.04822	0	0	0	0	0	0	0	0	0	0
10.45	-12.8191	511.564	-69.4945	-0.211767	0.006	-0.427425	0	-3.03834	0	-18.3741	427.169	57.1381	-0.19214	0.006	-0.886306	0	5.01315	0	0	0	0	0	0	0	0	0	0
10.46	-12.0856	510.778	-69.1182	-0.212776	0.006	-0.427719	0	-3.15292	0	-18.7299	426.862	57.6336	-0.192937	0.006	-0.88624	0	4.9713	0	0	0	0	0	0	0	0	0	0
10.47	-11.2125	509.801	-68.6698	-0.213923	0.006	-0.428053	0	-3.26069	0	-18.9158	426.599	58.0811	-0.194029	0.006	-0.886116	0	4.92519	0	0	0	0	0	0	0	0	0	0
10.48	-10.2223	508.741	-68.1776	-0.215195	0.006	-0.428423	0	-3.36077	0	-18.9095	426.452	58.4764	-0.195417	0.006	-0.885934	0	4.87696	0	0	0	0	0	0	0	0	0	0
10.49	-9.14099	507.681	-67.6679	-0.216578	0.006	-0.428826	0	-3.4524	0	-18.6945	426.465	58.8169	-0.197094	0.006	-0.885696	0	4.82832	0	0	0	0	0	0	0	0	0	0
10.5	-7.99764	506.678	-67.1637	-0.218054	0.006	-0.429255	0	-3.53506	0	-18.2609	426.662	59.1019	-0.199043	0.006	-0.885405	0	4.78073	0	0	0	0	0	0	0	0	0	0
10.51	-6.823	505.76	-66.6827	-0.219605	0.006	-0.429706	0	-3.60872	0	-17.6065	427.051	59.3323	-0.201245	0.006	-0.885064	0	4.73548	0	0	0	0	0	0	0	0	0	0
10.52	-5.6488	504.933	-66.2371	-0.221211	0.006	-0.430173	0	-3.6739	0	-16.7361	427.636	59.5112	-0.203674	0.006	-0.884681	0	4.69355	0	0	0	0	0	0	0	0	0	0
10.53	-4.50577	504.182	-65.8323	-0.22285	0.006	-0.43065	0	-3.73166	0	-15.6622	428.418	59.6441	-0.206298	0.006	-0.88426	0	4.65556	0	0	0	0	0	0	0	0	0	0
10.54	-3.42116	503.479	-65.4679	-0.224501	0.006	-0.431132	0	-3.78327	0	-14.4062	429.4	59.7389	-0.209083	0.006	-0.883807	0	4.62158	0	0	0	0	0	0	0	0	0	0
10.55	-2.41712	502.797	-65.1395	-0.226141	0.006	-0.431613	0	-3.82998	0	-12.9981	430.586	59.8058	-0.211988	0.006	-0.88333	0	4.59114	0	0	0	0	0	0	0	0	0	0
10.56	-1.50945	502.106	-64.842	-0.22775	0.006	-0.432087	0	-3.87283	0	-11.476	431.979	59.8568	-0.214971	0.006	-0.882834	0	4.56338	0	0	0	0	0	0	0	0	0	0
10.57	-0.707547	501.382	-64.5712	-0.229308	0.006	-0.432548	0	-3.91259	0	-9.88368	433.573	59.906	-0.217984	0.006	-0.882329	0	4.53734	0	0	0	0	0	0	0	0	0	0
10.58	-0.0148998	500.597	-64.3233	-0.230795	0.006	-0.43299	0	-3.94965	0	-8.26691	435.359	59.9683	-0.220981	0.006	-0.881822	0	4.51215	0	0	0	0	0	0	0	0	0	0
10.59	0.57003	499.724	-64.0942	-0.232191	0.006	-0.433406	0	-3.98423	0	-6.67056	437.316	60.0562	-0.223915	0.006	-0.881323	0	4.48716	0	0	0	0	0	0	0	0	0	0
10.6	1.05211	498.734	-63.8792	-0.23348	0.006	-0.433789	0	-4.01647	0	-5.13624	439.411	60.1779	-0.226744	0.006	-0.88084	0	4.462	0	0	0	0	0	0	0	0	0	0
10.61	1.43815	497.604	-63.6732	-0.23465	0.006	-0.434135	0	-4.04649	0	-3.70038	441.608	60.3346	-0.229431	0.006	-0.880378	0	4.43652	0	0	0	0	0	0	0	0	0	0
10.62	1.73588	496.32	-63.4705	-0.235689	0.006	-0.434441	0	-4.0744	0	-2.39267	443.868	60.5211	-0.231945	0.006	-0.879946	0	4.41086	0	0	0	0	0	0	0	0	0	0
10.63	1.95361	494.872	-63.2642	-0.236593	0.006	-0.434706	0	-4.10011	0	-1.2348	446.16	60.7263	-0.23426	0.006	-0.879545	0	4.38553	0	0	0	0	0	0	0	0	0	0
10.64	2.10051	493.251	-63.0459	-0.23736	0.006	-0.43493	0	-4.12336	0	-0.240133	448.462	60.9358	-0.236359	0.006	-0.879181	0	4.36147	0	0	0	0	0	0	0	0	0	0
10.65	2.18502	491.456	-62.8062	-0.237991	0.006	-0.435117	0	-4.14376	0	0.586114	450.762	61.1357	-0.238232	0.006	-0.878854	0	4.3399	0	0	0	0	0	0	0	0	0	0
10.66	2.21359	489.481	-62.535	-0.238494	0.006	-0.435269	0	-4.16086	0	1.24625	453.048	61.3136	-0.239875	0.006	-0.878565	0	4.3222	0	0	0	0	0	0	0	0	0	0
10.67	2.19123	487.32	-62.2207	-0.238876	0.006	-0.435391	0	-4.17424	0	1.74873	455.313	61.4593	-0.241289	0.006	-0.878313	0	4.30996	0	0	0	0	0	0	0	0	0	0
10.68	2.1219	484.95	-61.8498	-0.239146	0.006	-0.43549	0	-4.18354	0	2.1067	457.543	61.5649	-0.242481	0.006	-0.878097	0	4.30482	0	0	0	0	0	0	0	0	0	0
10.69	2.00947	482.337	-61.4071	-0.239317	0.006	-0.43557	0	-4.18848	0	2.33708	459.717	61.6242	-0.243456	0.006	-0.877916	0	4.30837	0	0	0	0	0	0	0	0	0	0
